<?xml version="1.0" encoding="UTF-8"?>
<svg xmlns="http://www.w3.org/2000/svg" version="1.1" viewBox="0 0 260 260">
  <defs>
    <style>
      .cls-1 {
        fill: #ce0e2d;
      }
    </style>
  </defs>
  <!-- Generator: Adobe Illustrator 28.7.1, SVG Export Plug-In . SVG Version: 1.2.0 Build 142)  -->
  <g>
    <g id="Layer_1">
      <path class="cls-1" d="M215.52,73.55c-19.47-20.58-47.95-34.02-79.33-34.02-55.73,0-101.08,40.38-101.08,90.11s45.35,90.54,101.08,90.54c26.57,0,51.65-10.13,70.72-26.15,13.09-10.83,32.6-10.18,45.16.83-9.64,14.87-22.69,27.86-38.78,38.03-22.78,14.58-49.43,22.1-77.09,22.1C60.94,255,.06,198.81.06,129.64S60.94,4.31,136.18,4.31c53.44,0,102.13,29.2,123.82,74.06-13.78,8.99-32.87,7.86-44.48-4.81Z"/>
    </g>
  </g>
</svg>